<mxfile host="app.diagrams.net" modified="2021-09-20T09:09:39.401Z" agent="5.0 (Macintosh; Intel Mac OS X 10_15_7) AppleWebKit/537.36 (KHTML, like Gecko) Chrome/93.0.4577.82 Safari/537.36" etag="AUSiWHHl6p-XkI2boEl2" version="15.2.9" type="github">
  <diagram id="MjEfSxOL4lbW5XQcoA4B" name="Page-1">
    <mxGraphModel dx="611" dy="436" grid="1" gridSize="10" guides="1" tooltips="1" connect="1" arrows="1" fold="1" page="1" pageScale="1" pageWidth="1169" pageHeight="1654" math="0" shadow="0">
      <root>
        <mxCell id="0" />
        <mxCell id="1" parent="0" />
        <mxCell id="U3dzKoIoEP1jLphZGP3O-1" value="开始" style="rounded=1;whiteSpace=wrap;html=1;" vertex="1" parent="1">
          <mxGeometry x="210" y="30" width="60" height="30" as="geometry" />
        </mxCell>
        <mxCell id="U3dzKoIoEP1jLphZGP3O-2" value="输入要插入的元素key，&lt;br&gt;HashTable 的头结点H" style="shape=parallelogram;perimeter=parallelogramPerimeter;whiteSpace=wrap;html=1;fixedSize=1;" vertex="1" parent="1">
          <mxGeometry x="160" y="90" width="160" height="40" as="geometry" />
        </mxCell>
        <mxCell id="U3dzKoIoEP1jLphZGP3O-3" value="ListNode *p,*L,*newCell;&lt;br&gt;p = Find(key,H);" style="rounded=0;whiteSpace=wrap;html=1;" vertex="1" parent="1">
          <mxGeometry x="165" y="160" width="150" height="40" as="geometry" />
        </mxCell>
        <mxCell id="U3dzKoIoEP1jLphZGP3O-4" value="p = NULL" style="rhombus;whiteSpace=wrap;html=1;" vertex="1" parent="1">
          <mxGeometry x="185" y="230" width="110" height="40" as="geometry" />
        </mxCell>
        <mxCell id="U3dzKoIoEP1jLphZGP3O-6" value="newCell = (ListNode *)malloc(sizeof(ListNode));&lt;br&gt;L = H-&amp;gt;theLists[Hash(key, H-&amp;gt;tableSize)];&lt;br&gt;newCell-&amp;gt;element = key;&lt;br&gt;newCell-&amp;gt;next = L-&amp;gt;next;&lt;br&gt;L-&amp;gt;next = newCell;" style="rounded=0;whiteSpace=wrap;html=1;" vertex="1" parent="1">
          <mxGeometry x="95" y="290" width="290" height="70" as="geometry" />
        </mxCell>
        <mxCell id="U3dzKoIoEP1jLphZGP3O-7" value="结束" style="rounded=1;whiteSpace=wrap;html=1;" vertex="1" parent="1">
          <mxGeometry x="207.5" y="390" width="65" height="30" as="geometry" />
        </mxCell>
        <mxCell id="U3dzKoIoEP1jLphZGP3O-8" value="" style="endArrow=classic;html=1;exitX=0.5;exitY=1;exitDx=0;exitDy=0;entryX=0.5;entryY=0;entryDx=0;entryDy=0;" edge="1" parent="1" source="U3dzKoIoEP1jLphZGP3O-1" target="U3dzKoIoEP1jLphZGP3O-2">
          <mxGeometry width="50" height="50" relative="1" as="geometry">
            <mxPoint x="290" y="260" as="sourcePoint" />
            <mxPoint x="340" y="210" as="targetPoint" />
          </mxGeometry>
        </mxCell>
        <mxCell id="U3dzKoIoEP1jLphZGP3O-9" value="" style="endArrow=classic;html=1;exitX=0.5;exitY=1;exitDx=0;exitDy=0;entryX=0.5;entryY=0;entryDx=0;entryDy=0;" edge="1" parent="1" source="U3dzKoIoEP1jLphZGP3O-2" target="U3dzKoIoEP1jLphZGP3O-3">
          <mxGeometry width="50" height="50" relative="1" as="geometry">
            <mxPoint x="290" y="260" as="sourcePoint" />
            <mxPoint x="340" y="210" as="targetPoint" />
          </mxGeometry>
        </mxCell>
        <mxCell id="U3dzKoIoEP1jLphZGP3O-10" value="" style="endArrow=classic;html=1;exitX=0.5;exitY=1;exitDx=0;exitDy=0;entryX=0.5;entryY=0;entryDx=0;entryDy=0;" edge="1" parent="1" source="U3dzKoIoEP1jLphZGP3O-3" target="U3dzKoIoEP1jLphZGP3O-4">
          <mxGeometry width="50" height="50" relative="1" as="geometry">
            <mxPoint x="290" y="260" as="sourcePoint" />
            <mxPoint x="340" y="210" as="targetPoint" />
          </mxGeometry>
        </mxCell>
        <mxCell id="U3dzKoIoEP1jLphZGP3O-11" value="" style="endArrow=classic;html=1;exitX=0.5;exitY=1;exitDx=0;exitDy=0;entryX=0.5;entryY=0;entryDx=0;entryDy=0;" edge="1" parent="1" source="U3dzKoIoEP1jLphZGP3O-4" target="U3dzKoIoEP1jLphZGP3O-6">
          <mxGeometry width="50" height="50" relative="1" as="geometry">
            <mxPoint x="290" y="260" as="sourcePoint" />
            <mxPoint x="340" y="210" as="targetPoint" />
          </mxGeometry>
        </mxCell>
        <mxCell id="U3dzKoIoEP1jLphZGP3O-12" value="" style="endArrow=classic;html=1;exitX=0.5;exitY=1;exitDx=0;exitDy=0;entryX=0.5;entryY=0;entryDx=0;entryDy=0;" edge="1" parent="1" source="U3dzKoIoEP1jLphZGP3O-6" target="U3dzKoIoEP1jLphZGP3O-7">
          <mxGeometry width="50" height="50" relative="1" as="geometry">
            <mxPoint x="290" y="260" as="sourcePoint" />
            <mxPoint x="340" y="210" as="targetPoint" />
          </mxGeometry>
        </mxCell>
        <mxCell id="U3dzKoIoEP1jLphZGP3O-13" value="Yes" style="text;html=1;align=center;verticalAlign=middle;resizable=0;points=[];autosize=1;strokeColor=none;fillColor=none;" vertex="1" parent="1">
          <mxGeometry x="240" y="270" width="40" height="20" as="geometry" />
        </mxCell>
      </root>
    </mxGraphModel>
  </diagram>
</mxfile>
